# xmcd
#
# Track frame offsets:
#	150
#	19932
#	38523
#	60626
#	81732
#	104723
#	125314
#	145714
#	168898
#	188822
#
# Disc length: 2805 seconds
#
# Revision: 0
# Processed by: cddbd v1.5.2PL0 Copyright (c) Steve Scherf et al.
# Submitted via: dBpowerAMP V4.0
#
DISCID=840af30a
DTITLE=Charles Wilson - Mr. Freak
DYEAR=1900
DGENRE=Blues
TTITLE0=Mr.Freak
TTITLE1=Let's Stomp
TTITLE2=You Can't Lose What You Never Had
TTITLE3=Why Should I Ger Married When My Neighbor's Got A Wife
TTITLE4=Hoochie Booty
TTITLE5=I'll Be Your Lover
TTITLE6=I Love the Love in You
TTITLE7=I'm So Glad
TTITLE8=Why Don't We Get Together
TTITLE9=Leave the Light On
EXTD=
EXTT0=
EXTT1=
EXTT2=
EXTT3=
EXTT4=
EXTT5=
EXTT6=
EXTT7=
EXTT8=
EXTT9=
PLAYORDER=
